<svg width="12" height="12" viewBox="0 0 12 12" fill="none" xmlns="http://www.w3.org/2000/svg">
<path d="M6.94233 6L11.8043 1.138C12.065 0.877332 12.065 0.455332 11.8043 0.195332C11.5437 -0.0653345 11.1217 -0.0653345 10.8617 0.195332L5.99967 5.05733L1.13767 0.195332C0.877 -0.0653345 0.455 -0.0653345 0.195 0.195332C-0.065 0.455999 -0.065 0.877999 0.195 1.138L5.057 6L0.195 10.862C-0.065 11.1227 -0.065 11.5447 0.195 11.8047C0.325 11.9347 0.495667 12 0.666333 12C0.837 12 1.00767 11.9347 1.13767 11.8047L5.99967 6.94267L10.8617 11.8047C10.9917 11.9347 11.1623 12 11.333 12C11.5037 12 11.6743 11.9347 11.8043 11.8047C12.065 11.544 12.065 11.122 11.8043 10.862L6.94233 6Z" fill="#6A6D71"/>
</svg>
